<?xml version="1.0" encoding="iso-8859-1"?>
<!-- Generator: Adobe Illustrator 16.0.0, SVG Export Plug-In . SVG Version: 6.00 Build 0)  -->
<!DOCTYPE svg PUBLIC "-//W3C//DTD SVG 1.1//EN" "http://www.w3.org/Graphics/SVG/1.1/DTD/svg11.dtd">
<svg version="1.1" id="Capa_1" xmlns="http://www.w3.org/2000/svg" xmlns:xlink="http://www.w3.org/1999/xlink" x="0px" y="0px"
	 width="33.015px" height="33.016px" viewBox="0 0 33.015 33.016" style="enable-background:new 0 0 33.015 33.016;"
	 xml:space="preserve">
<g>
	<g>
		<path d="M20.279,7.573V4.787h-2.037c0.595-0.498,0.98-1.236,0.98-2.071C19.223,1.22,18.005,0,16.507,0
			c-1.497,0-2.715,1.22-2.715,2.716c0,0.835,0.386,1.573,0.98,2.071h-2.036v2.786H6.298v25.442h20.419V7.573H20.279z M16.507,1.29
			c0.786,0,1.426,0.64,1.426,1.426c0,0.787-0.64,1.427-1.426,1.427s-1.427-0.64-1.427-1.427C15.082,1.93,15.721,1.29,16.507,1.29z
			 M25.427,31.727H7.587V8.863h5.148v1.665h7.543V8.863h5.148V31.727z"/>
		<rect x="9.941" y="14.518" width="13.703" height="0.967"/>
		<rect x="11.957" y="12.395" width="9.322" height="0.967"/>
		<rect x="9.941" y="16.734" width="13.703" height="0.967"/>
		<rect x="9.941" y="19.031" width="13.703" height="0.967"/>
		<rect x="9.941" y="21.247" width="13.703" height="0.967"/>
		<rect x="9.941" y="23.544" width="13.703" height="0.967"/>
		<rect x="9.941" y="25.761" width="13.703" height="0.968"/>
		<rect x="17.678" y="28.125" width="5.964" height="0.968"/>
	</g>
</g>
<g>
</g>
<g>
</g>
<g>
</g>
<g>
</g>
<g>
</g>
<g>
</g>
<g>
</g>
<g>
</g>
<g>
</g>
<g>
</g>
<g>
</g>
<g>
</g>
<g>
</g>
<g>
</g>
<g>
</g>
</svg>
